<?xml version="1.0" encoding="UTF-8"?>
<svg version="1.1" xmlns="http://www.w3.org/2000/svg" width="500" height="500">
<path d="M0 0 C165 0 330 0 500 0 C500 165 500 330 500 500 C335 500 170 500 0 500 C0 335 0 170 0 0 Z " fill="#000000" transform="translate(0,0)"/>
<path d="M0 0 C3.89227152 2.13693338 6.65661267 4.23020299 9 8 C9.74700572 12.5040051 9.52328795 16.70555085 7.8125 20.9375 C4.48338657 24.72580148 2.11642263 25.87595304 -2.9375 26.4375 C-7.22902681 26.25126393 -9.7525341 24.86985359 -13 22 C-16.07197429 17.73887437 -16.47520137 14.24515964 -15.71484375 9.1875 C-14.51463226 5.51472166 -12.12973955 3.1799181 -9 1 C-5.64870516 -0.11709828 -3.51689744 -0.34479387 0 0 Z " fill="#040404" transform="translate(316,243)"/>
<path d="M0 0 C3.4591786 2.00948135 5.44527007 4.35668716 6.7265625 8.15234375 C7.43022204 12.18803818 7.26588823 15.20946667 5.375 18.875 C2.61517052 22.50635458 0.70171879 24.61011782 -3.921875 25.27734375 C-8.41292554 25.48838936 -11.43749899 24.95178655 -15 22 C-18.35660345 18.18041676 -18.56798612 14.34343429 -18.421875 9.44140625 C-17.72071026 5.38373994 -16.02786468 3.75260426 -13 1 C-8.61698765 -1.66948901 -4.83891488 -1.40646661 0 0 Z " fill="#040404" transform="translate(351,244)"/>
<path d="M0 0 C14.575 -0.4125 14.575 -0.4125 20 3 C22 6 22 6 21.875 9.5 C21 13 21 13 19.1875 14.9375 C17 16 17 16 13 16 C13.3609375 16.48210937 13.721875 16.96421875 14.09375 17.4609375 C14.5578125 18.09257812 15.021875 18.72421875 15.5 19.375 C15.9640625 20.00148438 16.428125 20.62796875 16.90625 21.2734375 C18 23 18 23 18 25 C18.66 25.33 19.32 25.66 20 26 C18.68 26 17.36 26 16 26 C14.796875 24.28515625 14.796875 24.28515625 13.75 22.0625 C12.00269145 18.88081203 12.00269145 18.88081203 8.90234375 17.24609375 C6.4480879 16.93213062 6.4480879 16.93213062 3 17 C3.33 19.97 3.66 22.94 4 26 C2.68 25.67 1.36 25.34 0 25 C0 16.75 0 8.5 0 0 Z " fill="#030303" transform="translate(120,243)"/>
<path d="M0 0 C14.575 -0.4125 14.575 -0.4125 20 3 C22 6 22 6 21.875 9.5 C21 13 21 13 19.1875 14.9375 C17 16 17 16 13 16 C13.3609375 16.48210937 13.721875 16.96421875 14.09375 17.4609375 C14.5578125 18.09257812 15.021875 18.72421875 15.5 19.375 C15.9640625 20.00148438 16.428125 20.62796875 16.90625 21.2734375 C18 23 18 23 18 25 C18.66 25.33 19.32 25.66 20 26 C18.68 26 17.36 26 16 26 C14.796875 24.28515625 14.796875 24.28515625 13.75 22.0625 C12.00269145 18.88081203 12.00269145 18.88081203 8.90234375 17.24609375 C6.4480879 16.93213062 6.4480879 16.93213062 3 17 C3.33 19.97 3.66 22.94 4 26 C2.68 25.67 1.36 25.34 0 25 C0 16.75 0 8.5 0 0 Z M3 2 C3 6.29 3 10.58 3 15 C4.7325 15.04125 6.465 15.0825 8.25 15.125 C9.22453125 15.14820313 10.1990625 15.17140625 11.203125 15.1953125 C14.0733482 14.99487792 15.65882496 14.6538576 18 13 C19.1716367 9.63239813 19.1716367 9.63239813 19 6 C17.46265501 3.65979636 17.46265501 3.65979636 15 2 C11.95559865 1.51804725 11.95559865 1.51804725 8.75 1.75 C6.8525 1.8325 4.955 1.915 3 2 Z " fill="#D3D3D3" transform="translate(120,243)"/>
<path d="M0 0 C3 1 3 1 4.15087891 3.19311523 C4.50585449 4.13872314 4.86083008 5.08433105 5.2265625 6.05859375 C5.6184375 7.08404297 6.0103125 8.10949219 6.4140625 9.16601562 C6.81367188 10.24560547 7.21328125 11.32519531 7.625 12.4375 C8.42924401 14.56136591 9.23391046 16.68507191 10.0390625 18.80859375 C10.39178223 19.75532959 10.74450195 20.70206543 11.10791016 21.67749023 C11.94818865 23.97701561 11.94818865 23.97701561 13 26 C11.68 26 10.36 26 9 26 C8.34 23.03 7.68 20.06 7 17 C5.04098546 17.11382653 3.0827662 17.24141125 1.125 17.375 C0.03445312 17.44460938 -1.05609375 17.51421875 -2.1796875 17.5859375 C-5.13046474 17.73253491 -5.13046474 17.73253491 -7 20 C-6.29937517 15.43263559 -4.68729793 11.4300495 -2.9375 7.1875 C-2.51500977 6.14819336 -2.51500977 6.14819336 -2.08398438 5.08789062 C-1.39325027 3.39032376 -0.69716272 1.69493688 0 0 Z " fill="#D8D8D8" transform="translate(185,243)"/>
<path d="M0 0 C5.94 0 11.88 0 18 0 C18 0.99 18 1.98 18 3 C11.07 2.505 11.07 2.505 4 2 C4 4.64 4 7.28 4 10 C6.64 9.34 9.28 8.68 12 8 C12 9.65 12 11.3 12 13 C9.36 12.34 6.72 11.68 4 11 C4 15.62 4 20.24 4 25 C5.753125 24.855625 7.50625 24.71125 9.3125 24.5625 C10.29863281 24.48128906 11.28476563 24.40007812 12.30078125 24.31640625 C15.09375599 24.08187441 15.09375599 24.08187441 18 23 C18 23.99 18 24.98 18 26 C12.06 26 6.12 26 0 26 C0 17.42 0 8.84 0 0 Z " fill="#F5F5F5" transform="translate(149,243)"/>
<path d="M0 0 C3.89227152 2.13693338 6.65661267 4.23020299 9 8 C9.74700572 12.5040051 9.52328795 16.70555085 7.8125 20.9375 C4.48338657 24.72580148 2.11642263 25.87595304 -2.9375 26.4375 C-7.22902681 26.25126393 -9.7525341 24.86985359 -13 22 C-16.07197429 17.73887437 -16.47520137 14.24515964 -15.71484375 9.1875 C-14.51463226 5.51472166 -12.12973955 3.1799181 -9 1 C-5.64870516 -0.11709828 -3.51689744 -0.34479387 0 0 Z M-12 6 C-13.87243149 9.74486298 -13.5238016 13.92183044 -13 18 C-11.77516422 21.18707269 -10.89087679 21.80293364 -8 24 C-4.4755564 24.84355535 -1.5237227 24.84915941 2 24 C5.39823487 21.3493768 6.64988509 19.95652452 7.3984375 15.7734375 C7.60253828 11.07911952 7.05685547 7.73615668 4 4 C-1.89008133 0.07327911 -7.22700289 1.08236661 -12 6 Z " fill="#C3C3C3" transform="translate(316,243)"/>
<path d="M0 0 C3.4591786 2.00948135 5.44527007 4.35668716 6.7265625 8.15234375 C7.43022204 12.18803818 7.26588823 15.20946667 5.375 18.875 C2.61517052 22.50635458 0.70171879 24.61011782 -3.921875 25.27734375 C-8.41292554 25.48838936 -11.43749899 24.95178655 -15 22 C-18.35660345 18.18041676 -18.56798612 14.34343429 -18.421875 9.44140625 C-17.72071026 5.38373994 -16.02786468 3.75260426 -13 1 C-8.61698765 -1.66948901 -4.83891488 -1.40646661 0 0 Z M-15 6 C-16.59435019 9.18870039 -16.38632834 12.5297058 -16 16 C-14.6038245 18.91927604 -13.27797004 20.72202996 -11 23 C-7.59300959 23.62712744 -4.41070528 23.58897579 -1 23 C2.56069065 20.29387511 3.66536439 18.89023898 4.43359375 14.55078125 C4.64773884 10.20947633 4.42473974 7.69374157 2.125 3.9375 C-1.14012491 0.96047435 -3.52262342 0.60834635 -7.9609375 0.640625 C-11.38006698 1.2432302 -12.93189052 3.36786067 -15 6 Z " fill="#CBCBCB" transform="translate(351,244)"/>
<path d="M0 0 C5.61 0 11.22 0 17 0 C17 0.99 17 1.98 17 3 C10.07 2.505 10.07 2.505 3 2 C3 4.64 3 7.28 3 10 C5.64 9.34 8.28 8.68 11 8 C11 9.65 11 11.3 11 13 C8.36 12.34 5.72 11.68 3 11 C3 15.62 3 20.24 3 25 C4.753125 24.855625 6.50625 24.71125 8.3125 24.5625 C9.29863281 24.48128906 10.28476562 24.40007812 11.30078125 24.31640625 C14.09375599 24.08187441 14.09375599 24.08187441 17 23 C17 23.99 17 24.98 17 26 C11.39 26 5.78 26 0 26 C0 17.42 0 8.84 0 0 Z " fill="#E7E7E7" transform="translate(276,243)"/>
<path d="M0 0 C5.94 0 11.88 0 18 0 C17.67 1.32 17.34 2.64 17 4 C16.67 3.67 16.34 3.34 16 3 C13.81707226 2.76518307 11.62796826 2.58636677 9.4375 2.4375 C7.64119141 2.31181641 7.64119141 2.31181641 5.80859375 2.18359375 C4.88175781 2.12300781 3.95492188 2.06242188 3 2 C3 4.64 3 7.28 3 10 C5.64 9.67 8.28 9.34 11 9 C11 9.99 11 10.98 11 12 C8.36 11.67 5.72 11.34 3 11 C3 15.62 3 20.24 3 25 C5.8771875 24.7834375 5.8771875 24.7834375 8.8125 24.5625 C9.89144531 24.48128906 10.97039062 24.40007812 12.08203125 24.31640625 C15.05989905 24.09787539 15.05989905 24.09787539 18 23 C18 23.99 18 24.98 18 26 C12.06 26 6.12 26 0 26 C0 17.42 0 8.84 0 0 Z " fill="#F3F3F3" transform="translate(392,243)"/>
<path d="M0 0 C6.27 0 12.54 0 19 0 C14.41933934 8.0556446 9.81634716 16.08221716 5 24 C6.77074917 24.02705729 8.54161711 24.04642195 10.3125 24.0625 C11.29863281 24.07410156 12.28476562 24.08570313 13.30078125 24.09765625 C16.09963849 24.12329862 16.09963849 24.12329862 19 23 C19 23.99 19 24.98 19 26 C13.06 26 7.12 26 1 26 C1.845625 24.453125 2.69125 22.90625 3.5625 21.3125 C7.06717916 14.88864893 10.53619486 8.44595691 14 2 C12.0412957 2.14076315 10.08303907 2.2877676 8.125 2.4375 C7.03445313 2.51871094 5.94390625 2.59992188 4.8203125 2.68359375 C2.05271029 2.83001703 2.05271029 2.83001703 0 4 C0 2.68 0 1.36 0 0 Z " fill="#DFDFDF" transform="translate(365,243)"/>
<path d="M0 0 C1.32 0 2.64 0 4 0 C4.23710693 0.60062256 4.47421387 1.20124512 4.71850586 1.82006836 C5.78882572 4.5269469 6.86310775 7.23223541 7.9375 9.9375 C8.31068359 10.88302734 8.68386719 11.82855469 9.06835938 12.80273438 C9.42607422 13.70185547 9.78378906 14.60097656 10.15234375 15.52734375 C10.6472229 16.77632446 10.6472229 16.77632446 11.15209961 18.05053711 C11.84347269 19.96560634 11.84347269 19.96560634 13 21 C14.1492567 18.25138605 15.29451341 15.50122016 16.4375 12.75 C16.92573242 11.58404297 16.92573242 11.58404297 17.42382812 10.39453125 C17.73642578 9.64042969 18.04902344 8.88632813 18.37109375 8.109375 C18.65911865 7.41811523 18.94714355 6.72685547 19.24389648 6.01464844 C19.98946031 4.02808314 20.52784696 2.06693606 21 0 C21.99 0.33 22.98 0.66 24 1 C22.41367145 4.98651261 20.80301976 8.96273721 19.1875 12.9375 C18.73568359 14.07380859 18.28386719 15.21011719 17.81835938 16.38085938 C17.37685547 17.46044922 16.93535156 18.54003906 16.48046875 19.65234375 C16.07723389 20.65257568 15.67399902 21.65280762 15.25854492 22.68334961 C14 25 14 25 11 26 C10.70230713 25.28344238 10.40461426 24.56688477 10.09790039 23.82861328 C8.75350489 20.59376825 7.40801634 17.35937898 6.0625 14.125 C5.35963867 12.43310547 5.35963867 12.43310547 4.64257812 10.70703125 C3.9706543 9.09248047 3.9706543 9.09248047 3.28515625 7.4453125 C2.87144775 6.45031738 2.45773926 5.45532227 2.03149414 4.43017578 C1.39674734 2.93472734 0.72653555 1.4530711 0 0 Z " fill="#C4C4C4" transform="translate(244,243)"/>
<path d="M0 0 C0.86625 0.495 1.7325 0.99 2.625 1.5 C2.295 2.49 1.965 3.48 1.625 4.5 C1.13 4.005 0.635 3.51 0.125 3 C-3.36006262 0.90896243 -6.40083932 0.74107404 -10.375 1.5 C-12.80619623 3.37015094 -14.01569173 4.78138345 -15.375 7.5 C-15.77739637 12.73115287 -15.14526177 16.02496176 -12.375 20.5 C-9.19058048 22.09220976 -5.8412845 21.8976617 -2.375 21.5 C0.5504644 20.1490712 0.5504644 20.1490712 2.625 18.5 C1.25516497 21.66115776 0.6359362 22.4927092 -2.375 24.5 C-7.67477145 24.92740092 -11.12248241 25.02351458 -15.375 21.5 C-18.73160345 17.68041676 -18.94298612 13.84343429 -18.796875 8.94140625 C-17.98622825 4.25016346 -15.2666935 1.84249216 -11.4375 -0.875 C-7.0972978 -2.19021279 -4.13093967 -1.83597319 0 0 Z " fill="#BDBDBD" transform="translate(109.375,244.5)"/>
<path d="M0 0 C6.6 0 13.2 0 20 0 C19.67 1.32 19.34 2.64 19 4 C18.67 3.67 18.34 3.34 18 3 C15.69 2.67 13.38 2.34 11 2 C11.33 9.92 11.66 17.84 12 26 C10.68 25.67 9.36 25.34 8 25 C8.33 17.41 8.66 9.82 9 2 C6.69 2 4.38 2 2 2 C2 2.66 2 3.32 2 4 C1.34 4 0.68 4 0 4 C0 2.68 0 1.36 0 0 Z " fill="#F7F7F7" transform="translate(205,243)"/>
<path d="M0 0 C2.34914492 2.34914492 2.73140357 3.95679446 3.625 7.125 C3.88539063 8.03507813 4.14578125 8.94515625 4.4140625 9.8828125 C4.70410156 10.93082031 4.70410156 10.93082031 5 12 C2.03 12 -0.94 12 -4 12 C-2.66666667 8 -1.33333333 4 0 0 Z " fill="#090909" transform="translate(185,246)"/>
<path d="M0 0 C5.61 0 11.22 0 17 0 C17 0.99 17 1.98 17 3 C14.70800823 2.85936865 12.41640814 2.71234057 10.125 2.5625 C8.84882813 2.48128906 7.57265625 2.40007812 6.2578125 2.31640625 C3 2 3 2 1 1 C1 8.92 1 16.84 1 25 C0.67 25 0.34 25 0 25 C0 16.75 0 8.5 0 0 Z " fill="#999999" transform="translate(276,243)"/>
<path d="M0 0 C0.86625 0.495 1.7325 0.99 2.625 1.5 C2.295 2.49 1.965 3.48 1.625 4.5 C1.13 4.005 0.635 3.51 0.125 3 C-3.38400503 0.89459698 -6.37671374 0.78278164 -10.375 1.5 C-14.74403012 4.33396548 -15.7928107 8.7534321 -17.375 13.5 C-17.705 13.5 -18.035 13.5 -18.375 13.5 C-18.79897033 9.26029672 -18.81292242 6.51657823 -16.125 3.1875 C-11.00739512 -1.81379568 -6.78820785 -3.01698127 0 0 Z " fill="#D5D5D5" transform="translate(109.375,244.5)"/>
<path d="M0 0 C6.6 0 13.2 0 20 0 C19.67 1.32 19.34 2.64 19 4 C18.67 3.67 18.34 3.34 18 3 C12.69282159 2.07750762 7.37343833 1.88567152 2 2 C2 2.66 2 3.32 2 4 C1.34 4 0.68 4 0 4 C0 2.68 0 1.36 0 0 Z " fill="#B1B1B1" transform="translate(205,243)"/>
<path d="M0 0 C0.66 0.33 1.32 0.66 2 1 C1.0409375 1.9590625 1.0409375 1.9590625 0.0625 2.9375 C-2.34044112 6.50550348 -2.54304586 8.81201099 -2.7265625 13.01171875 C-3 15 -3 15 -5 17 C-6.4431451 9.01923373 -6.4431451 9.01923373 -4.75 5.125 C-3.24420788 3.29653813 -1.75604348 1.58880124 0 0 Z " fill="#CCCCCC" transform="translate(306,245)"/>
<path d="M0 0 C0.33 0 0.66 0 1 0 C1 2.64 1 5.28 1 8 C3.64 7.34 6.28 6.68 9 6 C9 7.65 9 9.3 9 11 C6.36 10.34 3.72 9.68 1 9 C1 13.29 1 17.58 1 22 C0.67 22 0.34 22 0 22 C0 14.74 0 7.48 0 0 Z " fill="#808080" transform="translate(152,245)"/>
<path d="M0 0 C6.27 0 12.54 0 19 0 C18.34 0.66 17.68 1.32 17 2 C16.34 1.67 15.68 1.34 15 1 C14.67 1.66 14.34 2.32 14 3 C13.15695312 2.98839844 12.31390625 2.97679687 11.4453125 2.96484375 C10.34960938 2.95582031 9.25390625 2.94679687 8.125 2.9375 C6.48917969 2.92009766 6.48917969 2.92009766 4.8203125 2.90234375 C2.04822454 2.80255697 2.04822454 2.80255697 0 4 C0 2.68 0 1.36 0 0 Z " fill="#A3A3A3" transform="translate(365,243)"/>
<path d="M0 0 C5.94 0 11.88 0 18 0 C17.67 1.32 17.34 2.64 17 4 C16.67 3.67 16.34 3.34 16 3 C13.30764224 2.76321284 10.63501844 2.57801975 7.9375 2.4375 C7.17888672 2.39431641 6.42027344 2.35113281 5.63867188 2.30664062 C3.75934562 2.20026367 1.87969756 2.09960066 0 2 C0 1.34 0 0.68 0 0 Z " fill="#A6A6A6" transform="translate(392,243)"/>
<path d="M0 0 C2 2 4 4 6 6 C8.0587768 6.27953219 10.11728432 6.44734351 12.1875 6.62109375 C13.0846875 6.80865234 13.0846875 6.80865234 14 7 C14.33 7.66 14.66 8.32 15 9 C10.3040987 9.32385526 7.83690924 9.41084636 3.5625 7.3125 C0.77932011 4.80084985 0.20429836 3.6773705 0 0 Z " fill="#B8B8B8" transform="translate(302,260)"/>
<path d="M0 0 C0.66 0.33 1.32 0.66 2 1 C2.44070796 9.66725664 2.44070796 9.66725664 -1 14 C-1.99 14.66 -2.98 15.32 -4 16 C-4.99 15.67 -5.98 15.34 -7 15 C-5 13 -3 11 -1 9 C-0.76807135 7.48530552 -0.58784762 5.96245438 -0.4375 4.4375 C-0.35371094 3.61121094 -0.26992188 2.78492188 -0.18359375 1.93359375 C-0.12300781 1.29550781 -0.06242187 0.65742188 0 0 Z " fill="#E8E8E8" transform="translate(323,252)"/>
<path d="M0 0 C5.94 0 11.88 0 18 0 C18 0.99 18 1.98 18 3 C15.74943278 2.88566637 13.49953326 2.75813564 11.25 2.625 C9.99703125 2.55539063 8.7440625 2.48578125 7.453125 2.4140625 C4 2 4 2 0 0 Z " fill="#AAAAAA" transform="translate(149,243)"/>
<path d="M0 0 C0.33 0.99 0.66 1.98 1 3 C0.67 3.66 0.34 4.32 0 5 C2.97 5 5.94 5 9 5 C9.33 5.66 9.66 6.32 10 7 C8.84371094 7.07347656 8.84371094 7.07347656 7.6640625 7.1484375 C6.66117188 7.22320312 5.65828125 7.29796875 4.625 7.375 C3.62726563 7.44460938 2.62953125 7.51421875 1.6015625 7.5859375 C-1.15508879 7.76363964 -1.15508879 7.76363964 -3 10 C-2.39009109 6.44219804 -1.4216319 3.3171411 0 0 Z " fill="#858585" transform="translate(181,253)"/>
<path d="M0 0 C0.33 0 0.66 0 1 0 C1.48512072 7.1555306 1.48512072 7.1555306 -0.6875 10.9375 C-3.21195277 13.18903896 -4.67042093 13.72253508 -8 14 C-7.59007812 13.57589844 -7.18015625 13.15179688 -6.7578125 12.71484375 C-2.96922332 8.59090098 -1.12091066 5.49246223 0 0 Z " fill="#E1E1E1" transform="translate(356,254)"/>
<path d="M0 0 C0.66 0 1.32 0 2 0 C2 0.99 2 1.98 2 3 C-3.94 3 -9.88 3 -16 3 C-11.99520151 0.99760075 -10.59591741 0.79452879 -6.3125 0.9375 C-4.5423653 0.99142463 -2.77083735 1.02048903 -1 1 C-0.67 0.67 -0.34 0.34 0 0 Z " fill="#E9E9E9" transform="translate(165,266)"/>
<path d="M0 0 C0.66 0 1.32 0 2 0 C3.32 3.3 4.64 6.6 6 10 C4.68 10 3.36 10 2 10 C0.68373308 6.38026598 0 3.90432869 0 0 Z " fill="#DDDDDD" transform="translate(192,259)"/>
<path d="M0 0 C0.66 0 1.32 0 2 0 C2 0.99 2 1.98 2 3 C-3.94 3 -9.88 3 -16 3 C-12.46919687 0.64613125 -11.03204198 0.81228789 -6.875 0.9375 C-4.91730017 0.99148932 -2.95833727 1.02046024 -1 1 C-0.67 0.67 -0.34 0.34 0 0 Z " fill="#E9E9E9" transform="translate(382,266)"/>
<path d="M0 0 C0.66 0 1.32 0 2 0 C2 0.99 2 1.98 2 3 C-2.62 3 -7.24 3 -12 3 C-12 2.67 -12 2.34 -12 2 C-11.21753906 1.93941406 -10.43507813 1.87882812 -9.62890625 1.81640625 C-8.61699219 1.73261719 -7.60507812 1.64882813 -6.5625 1.5625 C-5.55316406 1.48128906 -4.54382813 1.40007812 -3.50390625 1.31640625 C-1.06359221 1.26788532 -1.06359221 1.26788532 0 0 Z " fill="#E5E5E5" transform="translate(408,266)"/>
<path d="M0 0 C0.99 0.33 1.98 0.66 3 1 C3 1.66 3 2.32 3 3 C2.01 3 1.02 3 0 3 C-0.12375 3.78375 -0.2475 4.5675 -0.375 5.375 C-1 8 -1 8 -3 10 C-2.49287967 6.28111761 -1.88391785 3.26545761 0 0 Z " fill="#BABABA" transform="translate(185,243)"/>
<path d="M0 0 C0.66 0.33 1.32 0.66 2 1 C1.360625 1.78375 0.72125 2.5675 0.0625 3.375 C-1.98142313 5.79539281 -1.98142313 5.79539281 -3 8 C-3.66 8 -4.32 8 -5 8 C-4.45773019 4.20411134 -2.79872437 2.52788007 0 0 Z " fill="#EAEAEA" transform="translate(306,245)"/>
</svg>
